<mxfile host="app.diagrams.net" modified="2024-03-17T18:15:45.613Z" agent="Mozilla/5.0 (Windows NT 10.0; Win64; x64) AppleWebKit/537.36 (KHTML, like Gecko) Chrome/122.0.0.0 Safari/537.36" etag="Cs2wg-oE2uLF4V1pnaYs" version="24.0.7" type="github">
  <diagram name="Page-1" id="iaRSk2_xgpkPCr4ylLeU">
    <mxGraphModel dx="1674" dy="858" grid="1" gridSize="10" guides="1" tooltips="1" connect="1" arrows="1" fold="1" page="1" pageScale="1" pageWidth="1100" pageHeight="850" math="0" shadow="0">
      <root>
        <mxCell id="0" />
        <mxCell id="1" parent="0" />
      </root>
    </mxGraphModel>
  </diagram>
</mxfile>
